<svg xmlns="http://www.w3.org/2000/svg" viewBox="0 0 100 120" width="100%" height="100%">
  <defs>
    <linearGradient id="bellGold" x1="0%" y1="0%" x2="100%" y2="0%">
      <stop offset="0%" stop-color="#92400E" />
      <stop offset="25%" stop-color="#F59E0B" />
      <stop offset="50%" stop-color="#FFFBEB" />
      <stop offset="75%" stop-color="#D97706" />
      <stop offset="100%" stop-color="#78350F" />
    </linearGradient>
  </defs>

  <!-- Hanging Chain / Top Hook -->
  <path d="M46 2 C46 12 54 12 54 2 Z" fill="none" stroke="#F59E0B" stroke-width="2.5" />
  <circle cx="50" cy="16" r="5" fill="none" stroke="#F59E0B" stroke-width="2.5" />
  <rect x="47" y="21" width="6" height="8" rx="2" fill="url(#bellGold)" />

  <!-- Bell Dome -->
  <path d="M50 28 C34 30 30 52 26 78 C24 90 20 95 16 98 L84 98 C80 95 76 90 74 78 C70 52 66 30 50 28 Z" fill="url(#bellGold)" />
  
  <!-- Bell Rim / Flange -->
  <path d="M12 98 C12 104 88 104 88 98 L84 94 C76 96 24 96 16 94 Z" fill="#F59E0B" stroke="#B45309" stroke-width="1.5" />

  <!-- Engraved Decorative Rings -->
  <path d="M28 65 Q50 72 72 65" fill="none" stroke="#78350F" stroke-width="2" opacity="0.6" />
  <path d="M25 75 Q50 82 75 75" fill="none" stroke="#FFFBEB" stroke-width="1.5" opacity="0.7" />
  <path d="M22 85 Q50 92 78 85" fill="none" stroke="#78350F" stroke-width="2" opacity="0.6" />

  <!-- Clapper (Tongue) hanging down -->
  <circle cx="50" cy="106" r="6" fill="#F59E0B" stroke="#78350F" stroke-width="1.5" />
  <line x1="50" y1="95" x2="50" y2="104" stroke="#78350F" stroke-width="3" />
</svg>
