<svg xmlns="http://www.w3.org/2000/svg" viewBox="0 0 48 48" width="100%" height="100%">
  <defs>
    <linearGradient id="goldPotGrad" x1="0%" y1="0%" x2="100%" y2="100%">
      <stop offset="0%" stop-color="#FFF59D"/>
      <stop offset="35%" stop-color="#FFC107"/>
      <stop offset="75%" stop-color="#D97706"/>
      <stop offset="100%" stop-color="#92400E"/>
    </linearGradient>
    <linearGradient id="leafGrad" x1="0%" y1="0%" x2="0%" y2="100%">
      <stop offset="0%" stop-color="#4ADE80"/>
      <stop offset="100%" stop-color="#15803D"/>
    </linearGradient>
    <radialGradient id="coconutGrad" cx="50%" cy="40%" r="50%">
      <stop offset="0%" stop-color="#A16207"/>
      <stop offset="80%" stop-color="#713F12"/>
      <stop offset="100%" stop-color="#451A03"/>
    </radialGradient>
  </defs>
  <!-- Mango Leaves -->
  <path d="M24 16 C20 8 10 10 12 18 C16 18 20 18 24 16Z" fill="url(#leafGrad)"/>
  <path d="M24 16 C28 8 38 10 36 18 C32 18 28 18 24 16Z" fill="url(#leafGrad)"/>
  <path d="M24 14 C24 4 18 6 24 2 C30 6 24 4 24 14Z" fill="#22C55E"/>
  <!-- Coconut -->
  <ellipse cx="24" cy="15" rx="6.5" ry="8" fill="url(#coconutGrad)"/>
  <circle cx="24" cy="13" r="1.5" fill="#DC2626"/>
  <!-- Kalash Neck & Rim -->
  <ellipse cx="24" cy="22" rx="9" ry="3" fill="url(#goldPotGrad)"/>
  <ellipse cx="24" cy="22" rx="7.5" ry="2" fill="#78350F"/>
  <!-- Kalash Body -->
  <path d="M15 22 C14 28 11 36 18 42 C20 44 28 44 30 42 C37 36 34 28 33 22 Z" fill="url(#goldPotGrad)"/>
  <!-- Sacred Swastik / Tilak on Kalash -->
  <path d="M22 28 H26 M24 26 V32 M22 26 V28 M26 30 V32 M22 32 H24 M24 26 H26" stroke="#B91C1C" stroke-width="1.2" stroke-linecap="round"/>
  <!-- Base Stand -->
  <ellipse cx="24" cy="42" rx="8" ry="2.5" fill="url(#goldPotGrad)"/>
</svg>
